# xmcd
#
# Track frame offsets:
#	150
#	13945
#	35024
#	54291
#	75424
#	88368
#	103891
#	134416
#	153379
#	168527
#	178100
#	195828
#	212874
#	235399
#	256733
#	268514
#	281285
#	294160
#	316307
#	342581
#
# Disc length: 4573 seconds
#
# Revision: 1
# Processed by: cddbd v1.5.1PL0 Copyright (c) Steve Scherf et al.
# Submitted via: audiograbber 1.83.01
#
DISCID=1f11db14
DTITLE=Various Artist - EchoMusic Sampler v.4
DYEAR=2005
DGENRE=Country
TTITLE0=Fairfax - Angel Down
TTITLE1=Adrienne Young and Little Sadie - Poison
TTITLE2=Dan Colehour - This Time
TTITLE3=Charlie Robison - El Cerrito Place
TTITLE4=David Ball - Louisiana Melody
TTITLE5=The Avett Brothers - Nothing Short of Thankful
TTITLE6=Darrell Scott - The Man Who Could Have Played Bass for Shanana
TTITLE7=Mavis Staples - Hard Times Come Again No More
TTITLE8=Brad Davis - Love You Don't Know
TTITLE9=K&A Smith Band - I Know Where Love Lives
TTITLE10=Eric Heatherly - Way Down
TTITLE11=Rod Picott - Down to the Bone
TTITLE12=Poco - If Your Heart Needs A Hand
TTITLE13=John Cowan - Ain't Necessarily Love (live)
TTITLE14=King Wilkie - It's Been A Long Time
TTITLE15=Cowboy Jack Clement - Guess Things Happen That Way
TTITLE16=Joni Harms - Cowboy Up
TTITLE17=Pat Flynn - In the Middle of the Night
TTITLE18=Ralph Stanley - Great Mountain High
TTITLE19=Data Track - Data Track
EXTD=Promo cd
EXTT0=
EXTT1=
EXTT2=
EXTT3=
EXTT4=
EXTT5=
EXTT6=
EXTT7=
EXTT8=
EXTT9=
EXTT10=
EXTT11=
EXTT12=
EXTT13=
EXTT14=
EXTT15=
EXTT16=
EXTT17=
EXTT18=
EXTT19=
PLAYORDER=
